<svg width="32" height="32" viewBox="0 0 32 32" fill="none" xmlns="http://www.w3.org/2000/svg">
<path d="M25.7552 24.668C25.8307 24.7384 25.8914 24.8233 25.9334 24.9177C25.9755 25.0121 25.9981 25.1139 25.9999 25.2172C26.0017 25.3205 25.9827 25.4231 25.944 25.5189C25.9053 25.6146 25.8477 25.7017 25.7747 25.7747C25.7017 25.8477 25.6146 25.9053 25.5189 25.944C25.4231 25.9827 25.3205 26.0017 25.2172 25.9999C25.1139 25.9981 25.0121 25.9755 24.9177 25.9334C24.8233 25.8914 24.7384 25.8307 24.668 25.7552L15.9808 17.0693L7.29363 25.7552C7.14781 25.8911 6.95494 25.965 6.75566 25.9615C6.55638 25.958 6.36624 25.8773 6.2253 25.7363C6.08437 25.5954 6.00364 25.4052 6.00012 25.206C5.9966 25.0067 6.07058 24.8138 6.20645 24.668L14.8924 15.9808L6.20645 7.29363C6.07058 7.14781 5.9966 6.95494 6.00012 6.75566C6.00364 6.55638 6.08437 6.36624 6.2253 6.2253C6.36624 6.08437 6.55638 6.00364 6.75566 6.00012C6.95494 5.9966 7.14781 6.07058 7.29363 6.20645L15.9808 14.8924L24.668 6.20645C24.8138 6.07058 25.0067 5.9966 25.206 6.00012C25.4052 6.00364 25.5954 6.08437 25.7363 6.2253C25.8773 6.36624 25.958 6.55638 25.9615 6.75566C25.965 6.95494 25.8911 7.14781 25.7552 7.29363L17.0693 15.9808L25.7552 24.668Z" fill="black"/>
</svg>
