<svg width="24" height="24" viewBox="0 0 24 24" fill="none" xmlns="http://www.w3.org/2000/svg">
<rect width="24" height="24" rx="12" fill="#F1F0EE"/>
<path fill-rule="evenodd" clip-rule="evenodd" d="M11.9996 12.9201L15.5961 16.5167C15.7524 16.6729 16.0056 16.6729 16.1618 16.5167L16.5167 16.1618C16.6729 16.0056 16.6729 15.7524 16.5167 15.5961L12.9201 11.9996L16.5167 8.40298C16.6729 8.24677 16.6729 7.99351 16.5167 7.83729L16.1618 7.48239C16.0056 7.32618 15.7524 7.32618 15.5961 7.48239L11.9996 11.079L8.40298 7.48239C8.24677 7.32618 7.99351 7.32618 7.83729 7.48239L7.48239 7.83729C7.32618 7.99351 7.32618 8.24677 7.48239 8.40298L11.079 11.9996L7.48239 15.5961C7.32618 15.7524 7.32618 16.0056 7.48239 16.1618L7.83729 16.5167C7.99351 16.6729 8.24677 16.6729 8.40298 16.5167L11.9996 12.9201Z" fill="#161616"/>
</svg>
