<svg width="36" height="36" viewBox="0 0 36 36" fill="none" xmlns="http://www.w3.org/2000/svg">
<rect width="36" height="36" rx="18" fill="#1BA97F"/>
<path d="M25.7906 15.1866L18.2612 10.0805C18.1838 10.028 18.093 10 18 10C17.907 10 17.8162 10.028 17.7388 10.0805L10.2094 15.1866C10.1449 15.2304 10.092 15.2898 10.0555 15.3594C10.0189 15.4289 9.99989 15.5067 10 15.5856V23.883C10 24.1793 10.1157 24.4634 10.3216 24.6728C10.5275 24.8823 10.8068 25 11.098 25H24.902C25.1932 25 25.4725 24.8823 25.6784 24.6728C25.8843 24.4634 26 24.1793 26 23.883V15.5856C26.0001 15.5067 25.9811 15.4289 25.9445 15.3594C25.908 15.2898 25.8551 15.2304 25.7906 15.1866ZM15.818 20.0534L10.9412 23.5559V16.515L15.818 20.0534ZM16.7804 20.5321H19.2196L24.1051 24.0426H11.8949L16.7804 20.5321ZM20.182 20.0534L25.0588 16.515V23.5559L20.182 20.0534ZM18 11.0546L24.7004 15.6023L19.218 19.5747H16.782L11.2996 15.5991L18 11.0546Z" fill="white"/>
</svg>
