<svg xmlns="http://www.w3.org/2000/svg" width="11" height="22" viewBox="0 0 11 22" fill="none">
  <path d="M3.33589 16.0099C3.33589 15.8986 3.37663 15.8 3.45811 15.7144L8.26144 10.6647L3.45811 5.61494C3.37663 5.52928 3.33589 5.43077 3.33589 5.31941C3.33589 5.20805 3.37663 5.10954 3.45811 5.02388L4.06922 4.38142C4.1507 4.29576 4.2444 4.25293 4.35033 4.25293C4.45626 4.25293 4.54996 4.29576 4.63144 4.38142L10.327 10.3691C10.4085 10.4548 10.4492 10.5533 10.4492 10.6647C10.4492 10.776 10.4085 10.8745 10.327 10.9602L4.63144 16.9479C4.54996 17.0336 4.45626 17.0764 4.35033 17.0764C4.2444 17.0764 4.1507 17.0336 4.06922 16.9479L3.45811 16.3054C3.37663 16.2198 3.33589 16.1213 3.33589 16.0099Z" fill="#282F34"/>
</svg>