<svg xmlns="http://www.w3.org/2000/svg" width="11" height="22" viewBox="0 0 11 22" fill="none">
  <path d="M3.33589 5.99009C3.33589 6.10145 3.37663 6.19996 3.45811 6.28562L8.26144 11.3353L3.45811 16.3851C3.37663 16.4707 3.33589 16.5692 3.33589 16.6806C3.33589 16.7919 3.37663 16.8905 3.45811 16.9761L4.06922 17.6186C4.1507 17.7042 4.2444 17.7471 4.35033 17.7471C4.45626 17.7471 4.54996 17.7042 4.63144 17.6186L10.327 11.6309C10.4085 11.5452 10.4492 11.4467 10.4492 11.3353C10.4492 11.224 10.4085 11.1255 10.327 11.0398L4.63144 5.0521C4.54996 4.96644 4.45626 4.92361 4.35033 4.92361C4.2444 4.92361 4.1507 4.96644 4.06922 5.0521L3.45811 5.69456C3.37663 5.78022 3.33589 5.87873 3.33589 5.99009Z" fill="url(#paint0_linear_2091_24070)"/>
  <defs>
    <linearGradient id="paint0_linear_2091_24070" x1="7.88511" y1="18.697" x2="-1.18476" y2="9.31697" gradientUnits="userSpaceOnUse">
      <stop stop-color="#0D95FF"/>
      <stop offset="1" stop-color="#7BB9E8"/>
    </linearGradient>
  </defs>
</svg>