<svg xmlns="http://www.w3.org/2000/svg" width="11" height="22" viewBox="0 0 11 22" fill="none">
  <path d="M7.66411 5.99009C7.66411 6.10145 7.62337 6.19996 7.54189 6.28562L2.73856 11.3353L7.54189 16.3851C7.62337 16.4707 7.66411 16.5692 7.66411 16.6806C7.66411 16.7919 7.62337 16.8905 7.54189 16.9761L6.93078 17.6186C6.8493 17.7042 6.7556 17.7471 6.64967 17.7471C6.54374 17.7471 6.45004 17.7042 6.36856 17.6186L0.673003 11.6309C0.591522 11.5452 0.550781 11.4467 0.550781 11.3353C0.550781 11.224 0.591522 11.1255 0.673003 11.0398L6.36856 5.0521C6.45004 4.96644 6.54374 4.92361 6.64967 4.92361C6.7556 4.92361 6.8493 4.96644 6.93078 5.0521L7.54189 5.69456C7.62337 5.78022 7.66411 5.87873 7.66411 5.99009Z" fill="#282F34"/>
</svg>