<svg xmlns="http://www.w3.org/2000/svg" width="11" height="22" viewBox="0 0 11 22" fill="none">
  <path d="M7.66411 16.0099C7.66411 15.8986 7.62337 15.8 7.54189 15.7144L2.73856 10.6647L7.54189 5.61494C7.62337 5.52928 7.66411 5.43077 7.66411 5.31941C7.66411 5.20805 7.62337 5.10954 7.54189 5.02388L6.93078 4.38142C6.8493 4.29576 6.7556 4.25293 6.64967 4.25293C6.54374 4.25293 6.45004 4.29576 6.36856 4.38142L0.673003 10.3691C0.591522 10.4548 0.550781 10.5533 0.550781 10.6647C0.550781 10.776 0.591522 10.8745 0.673003 10.9602L6.36856 16.9479C6.45004 17.0336 6.54374 17.0764 6.64967 17.0764C6.7556 17.0764 6.8493 17.0336 6.93078 16.9479L7.54189 16.3054C7.62337 16.2198 7.66411 16.1213 7.66411 16.0099Z" fill="url(#paint0_linear_2091_24070)"/>
  <defs>
    <linearGradient id="paint0_linear_2091_24070" x1="3.11489" y1="3.30304" x2="12.1848" y2="12.683" gradientUnits="userSpaceOnUse">
      <stop stop-color="#0D95FF"/>
      <stop offset="1" stop-color="#7BB9E8"/>
    </linearGradient>
  </defs>
</svg>