<svg xmlns="http://www.w3.org/2000/svg" width="8" height="8" viewBox="0 0 8 8" fill="none">
<path d="M4 0C3.20888 0 2.43552 0.234596 1.77772 0.674121C1.11992 1.11365 0.607234 1.73836 0.304484 2.46927C0.00173307 3.20017 -0.0774802 4.00444 0.0768607 4.78036C0.231202 5.55628 0.612164 6.26902 1.17157 6.82843C1.73098 7.38784 2.44372 7.7688 3.21964 7.92314C3.99556 8.07748 4.79983 7.99827 5.53073 7.69552C6.26164 7.39277 6.88635 6.88008 7.32588 6.22228C7.7654 5.56448 8 4.79112 8 4C7.99875 2.93952 7.57693 1.92282 6.82705 1.17295C6.07718 0.423073 5.06048 0.00124543 4 0ZM4 7.52941C3.30195 7.52941 2.61957 7.32241 2.03917 6.9346C1.45876 6.54678 1.00638 5.99556 0.73925 5.35065C0.472118 4.70573 0.402223 3.99608 0.538407 3.31145C0.67459 2.62681 1.01073 1.99793 1.50433 1.50433C1.99793 1.01073 2.62681 0.674588 3.31145 0.538405C3.99609 0.402222 4.70573 0.472116 5.35065 0.739249C5.99556 1.00638 6.54678 1.45875 6.9346 2.03916C7.32242 2.61957 7.52941 3.30195 7.52941 4C7.52837 4.93574 7.15619 5.83286 6.49452 6.49452C5.83286 7.15619 4.93574 7.52837 4 7.52941ZM4.79059 4.44784C5.03702 4.33846 5.2384 4.14775 5.36102 3.90763C5.48365 3.66752 5.52008 3.39257 5.46422 3.12881C5.40836 2.86504 5.26361 2.62847 5.05417 2.45868C4.84474 2.28889 4.58334 2.19618 4.31373 2.19608H3.05882C2.99642 2.19608 2.93657 2.22087 2.89245 2.26499C2.84832 2.30912 2.82353 2.36897 2.82353 2.43137V5.56863C2.82353 5.63103 2.84832 5.69088 2.89245 5.735C2.93657 5.77913 2.99642 5.80392 3.05882 5.80392C3.12123 5.80392 3.18108 5.77913 3.2252 5.735C3.26933 5.69088 3.29412 5.63103 3.29412 5.56863V4.54902H4.29255L5.05882 5.69921C5.09346 5.75122 5.14733 5.78733 5.20859 5.79961C5.26986 5.8119 5.33349 5.79934 5.38549 5.7647C5.43749 5.73007 5.47361 5.6762 5.48589 5.61493C5.49817 5.55367 5.48561 5.49004 5.45098 5.43804L4.79059 4.44784ZM3.29412 2.66667H4.31373C4.50094 2.66667 4.68048 2.74104 4.81286 2.87341C4.94524 3.00579 5.01961 3.18534 5.01961 3.37255C5.01961 3.55976 4.94524 3.7393 4.81286 3.87168C4.68048 4.00406 4.50094 4.07843 4.31373 4.07843H3.29412V2.66667Z" fill="#3871B2"/>
</svg>