<svg width="14" height="15" viewBox="0 0 14 15" fill="none" xmlns="http://www.w3.org/2000/svg">
<path d="M6.09476 0.92855C6.45468 0.16176 7.54532 0.161758 7.90524 0.928548L9.22689 3.74424C9.36843 4.04578 9.65083 4.25705 9.98007 4.3077L13.0814 4.78483C13.8849 4.90845 14.2129 5.88833 13.6458 6.47082L11.4065 8.77065C11.1845 8.99866 11.0842 9.31874 11.1366 9.63266L11.6691 12.8282C11.8074 13.6575 10.9226 14.2769 10.1907 13.8631L7.60274 12.4004C7.29524 12.2266 6.91885 12.2279 6.61256 12.4038L3.92516 13.9477C3.1933 14.3681 2.30188 13.7487 2.44064 12.9162L2.97008 9.73954C3.02242 9.4255 2.92209 9.10531 2.69991 8.87728L0.355272 6.47094C-0.212197 5.88854 0.11575 4.90835 0.919445 4.7847L4.01993 4.3077C4.34917 4.25705 4.63157 4.04578 4.77311 3.74424L6.09476 0.92855Z" fill="#F4B617"/>
</svg>
