<svg width="43" height="42" viewBox="0 0 43 42" fill="none" xmlns="http://www.w3.org/2000/svg">
<path opacity="0.52" d="M39.6249 3.48902C38.872 2.69993 37.9781 2.07397 36.9941 1.64689C36.0102 1.21982 34.9556 1 33.8905 1C32.8255 1 31.7708 1.21982 30.7869 1.64689C29.803 2.07397 28.909 2.69993 28.1561 3.48902L21.354 10.614C21.2415 10.7262 21.152 10.8611 21.0908 11.0106C21.0296 11.1602 20.998 11.3212 20.998 11.4839C20.998 11.6465 21.0296 11.8075 21.0908 11.9571C21.152 12.1066 21.2415 12.2416 21.354 12.3538L31.1617 22.6684C31.3912 22.8804 31.6863 22.9981 31.9922 22.9998C32.2996 23.0062 32.5974 22.8874 32.8227 22.6684L39.6249 15.5434C40.3794 14.7559 40.9775 13.8196 41.3848 12.7887C41.792 11.7578 42.0004 10.6526 41.9977 9.53693C42.007 8.42023 41.8017 7.313 41.3941 6.28111C40.9864 5.24923 40.3848 4.31378 39.6249 3.53044V3.48902Z" fill="url(#paint0_linear_2091_24480)"/>
<path opacity="0.52" d="M22.9975 18.5308C22.9975 18.3829 22.966 18.2365 22.9048 18.1006C22.8436 17.9646 22.7541 17.842 22.6417 17.74L15.8419 11.2627C15.0892 10.5454 14.1956 9.97634 13.212 9.58808C12.2284 9.19983 11.1742 9 10.1095 9C9.04478 9 7.99051 9.19983 7.00692 9.58808C6.02333 9.97634 5.12969 10.5454 4.37706 11.2627H4.33753C2.83148 12.7205 1.99069 14.6857 1.9981 16.7309C2.0055 18.7762 2.8605 20.7359 4.37706 22.1836L11.1769 28.6985C11.4022 28.8976 11.6998 29.0056 12.0071 28.9998C12.313 28.9983 12.6079 28.8912 12.8373 28.6985L22.6417 19.3216C22.7581 19.2226 22.8503 19.1004 22.9117 18.9638C22.9732 18.8272 23.0025 18.6794 22.9975 18.5308Z" fill="url(#paint1_linear_2091_24480)"/>
<path d="M27.0603 23.0002C26.3698 23.008 25.697 23.2198 25.1266 23.6091C24.5562 23.9984 24.1138 24.5477 23.8549 25.1879C23.596 25.828 23.5323 26.5305 23.6717 27.2068C23.8112 27.8831 24.1476 28.5031 24.6386 28.9887C25.1296 29.4742 25.7533 29.8037 26.4311 29.9356C27.109 30.0675 27.8107 29.9959 28.4479 29.7299C29.0852 29.4638 29.6295 29.0153 30.0124 28.4406C30.3952 27.8659 30.5996 27.1908 30.5996 26.5002C30.5996 26.0373 30.5078 25.5789 30.3295 25.1517C30.1511 24.7245 29.8898 24.3369 29.5606 24.0113C29.2314 23.6858 28.8409 23.4288 28.4118 23.2553C27.9826 23.0817 27.5232 22.995 27.0603 23.0002Z" fill="url(#paint2_linear_2091_24480)"/>
<path d="M19.0996 34C21.0326 34 22.5996 32.433 22.5996 30.5C22.5996 28.567 21.0326 27 19.0996 27C17.1666 27 15.5996 28.567 15.5996 30.5C15.5996 32.433 17.1666 34 19.0996 34Z" fill="url(#paint3_linear_2091_24480)"/>
<path d="M27.1854 33.0215C26.2016 33.1239 25.2906 33.5873 24.6283 34.322C23.9661 35.0568 23.5996 36.0109 23.5996 37C23.5996 37.9891 23.9661 38.9432 24.6283 39.678C25.2906 40.4127 26.2016 40.8761 27.1854 40.9785C27.7426 41.0365 28.3058 40.9768 28.8385 40.8033C29.3711 40.6298 29.8614 40.3463 30.2776 39.9713C30.6937 39.5962 31.0265 39.1379 31.2542 38.6261C31.4819 38.1142 31.5996 37.5602 31.5996 37C31.5996 36.4398 31.4819 35.8858 31.2542 35.3739C31.0265 34.8621 30.6937 34.4038 30.2776 34.0287C29.8614 33.6537 29.3711 33.3702 28.8385 33.1967C28.3058 33.0232 27.7426 32.9635 27.1854 33.0215Z" fill="url(#paint4_linear_2091_24480)"/>
<defs>
<linearGradient id="paint0_linear_2091_24480" x1="28.5678" y1="-0.629629" x2="41.866" y2="23.0362" gradientUnits="userSpaceOnUse">
<stop stop-color="#0D95FF"/>
<stop offset="1" stop-color="#7BB9E8"/>
</linearGradient>
<linearGradient id="paint1_linear_2091_24480" x1="9.56781" y1="7.51852" x2="21.0356" y2="29.9679" gradientUnits="userSpaceOnUse">
<stop stop-color="#0D95FF"/>
<stop offset="1" stop-color="#7BB9E8"/>
</linearGradient>
<linearGradient id="paint2_linear_2091_24480" x1="26.1229" y1="22.4815" x2="30.2498" y2="30.1755" gradientUnits="userSpaceOnUse">
<stop stop-color="#0D95FF"/>
<stop offset="1" stop-color="#7BB9E8"/>
</linearGradient>
<linearGradient id="paint3_linear_2091_24480" x1="18.1229" y1="26.4815" x2="22.2498" y2="34.1755" gradientUnits="userSpaceOnUse">
<stop stop-color="#0D95FF"/>
<stop offset="1" stop-color="#7BB9E8"/>
</linearGradient>
<linearGradient id="paint4_linear_2091_24480" x1="26.4833" y1="32.4074" x2="31.1998" y2="41.2006" gradientUnits="userSpaceOnUse">
<stop stop-color="#0D95FF"/>
<stop offset="1" stop-color="#7BB9E8"/>
</linearGradient>
</defs>
</svg>
