<svg width="43" height="42" viewBox="0 0 43 42" fill="none" xmlns="http://www.w3.org/2000/svg">
<path fill-rule="evenodd" clip-rule="evenodd" d="M16.0406 1.76393V3.52786H17.7635H19.4864V5.29023C19.4864 7.05219 19.4864 7.0526 19.3018 7.0896C19.2003 7.10995 18.8219 7.16968 18.4609 7.22227C16.3176 7.53452 13.6457 8.5672 11.7949 9.79867L11.2411 10.167L9.9275 8.85755C9.20503 8.13729 8.5769 7.54798 8.5317 7.54798C8.48657 7.54798 7.90546 8.09299 7.24042 8.7591L6.03135 9.9703L7.262 11.1989C7.93885 11.8746 8.49265 12.4564 8.49265 12.4917C8.49265 12.5269 8.22962 12.8596 7.90809 13.231C6.71477 14.6097 5.5313 16.6416 4.84533 18.4896C4.47187 19.4954 4.11178 20.9278 3.9349 22.1107C3.77459 23.1824 3.75252 25.5332 3.89256 26.623C4.55252 31.7607 7.34273 36.2539 11.6781 39.1605C13.7875 40.5746 16.672 41.6162 19.3516 41.9313C20.547 42.0719 23.2316 41.986 24.3734 41.7706C27.3043 41.2178 29.9081 40.0305 32.263 38.1732C33.6159 37.1063 35.282 35.218 36.2117 33.698C39.4063 28.4751 39.6558 21.9599 36.8695 16.5172C36.328 15.4594 35.401 14.072 34.674 13.231C34.3528 12.8596 34.0901 12.5269 34.0901 12.4917C34.0901 12.4564 34.6439 11.8746 35.3208 11.1989L36.5514 9.9703L35.3424 8.7591C34.6773 8.09299 34.0962 7.54798 34.0511 7.54798C34.0059 7.54798 33.3778 8.13697 32.6553 8.8569L31.3417 10.1657L30.7264 9.75625C29.8203 9.15332 27.955 8.25937 26.8159 7.88222C25.8532 7.5634 23.994 7.13776 23.5645 7.13776C23.083 7.13776 23.0963 7.19052 23.0963 5.28301V3.52786H24.8193H26.5422V1.76393V0H21.2914H16.0406V1.76393ZM22.5587 10.5869C28.7453 11.1735 33.6607 15.5877 35.0103 21.769C35.169 22.4955 35.1925 22.8459 35.1925 24.4899C35.1925 26.1456 35.1696 26.4825 35.0058 27.2384C34.0724 31.5477 31.4469 34.9929 27.6047 36.9504C24.2236 38.6729 20.4819 38.946 16.8374 37.7363C12.3588 36.2497 8.90951 32.5325 7.75458 27.9483C7.40664 26.567 7.31565 25.6304 7.36824 23.9711C7.43913 21.7368 7.80808 20.285 8.82098 18.2546C9.53295 16.8275 10.2628 15.798 11.3231 14.7251C12.9954 13.0331 14.7884 11.9221 16.9841 11.2173C18.9195 10.596 20.6233 10.4033 22.5587 10.5869Z" fill="url(#paint0_linear_2091_24495)"/>
<path opacity="0.5" fill-rule="evenodd" clip-rule="evenodd" d="M20.9942 19.1945V24.4475H15.731H10.4678L10.5204 25.2885C10.6316 27.0688 11.2487 28.8326 12.3217 30.4367C12.8932 31.291 14.3154 32.6948 15.1692 33.2472C17.0837 34.486 18.7577 34.9855 20.9942 34.9855C23.9258 34.9855 26.3244 33.992 28.3859 31.9241C29.8752 30.43 30.7071 28.9684 31.2172 26.9499C31.4998 25.8316 31.5706 24.0219 31.3776 22.8479C30.9362 20.1623 29.4748 17.737 27.3206 16.1154C25.6703 14.8731 23.8299 14.1958 21.548 13.9911L20.9942 13.9414V19.1945Z" fill="url(#paint1_linear_2091_24495)"/>
<defs>
<linearGradient id="paint0_linear_2091_24495" x1="16.4148" y1="-3.11111" x2="43.47" y2="38.9189" gradientUnits="userSpaceOnUse">
<stop stop-color="#0D95FF"/>
<stop offset="1" stop-color="#7BB9E8"/>
</linearGradient>
<linearGradient id="paint1_linear_2091_24495" x1="18.0442" y1="12.3826" x2="30.4592" y2="35.5006" gradientUnits="userSpaceOnUse">
<stop stop-color="#0D95FF"/>
<stop offset="1" stop-color="#7BB9E8"/>
</linearGradient>
</defs>
</svg>
