<svg width="43" height="42" viewBox="0 0 43 42" fill="none" xmlns="http://www.w3.org/2000/svg">
<path opacity="0.5" fill-rule="evenodd" clip-rule="evenodd" d="M15.4707 38.2266V42H21.623H27.7754V38.2266V34.4531H21.623H15.4707V38.2266Z" fill="url(#paint0_linear_2091_24502)"/>
<path fill-rule="evenodd" clip-rule="evenodd" d="M10.4375 0.307617C10.4967 0.799148 12.8457 26.7604 12.8457 26.9231C12.8457 27.0637 13.2348 27.0703 21.5821 27.0703C29.4938 27.0703 30.3184 27.0581 30.3184 26.9405C30.3184 26.7618 32.765 0.59809 32.8127 0.266602L32.851 0H21.6257H10.4004L10.4375 0.307617ZM22.711 10.5615C24.2441 14.4025 24.9375 16.4076 25.207 17.7797C25.3211 18.3598 25.3255 18.5427 25.2375 19.0349C24.9545 20.6182 23.784 21.7886 22.2001 22.0716C20.6915 22.3412 19.0586 21.5105 18.3659 20.121C17.9755 19.338 17.8747 18.6163 18.0391 17.7797C18.3099 16.4013 19.0145 14.3606 20.4956 10.6641C20.9928 9.42334 21.4395 8.30673 21.4883 8.18262C21.5371 8.0585 21.5982 7.95703 21.6242 7.95703C21.6502 7.95703 22.1392 9.12901 22.711 10.5615ZM21.0112 16.1683C20.3926 18.0107 20.2966 18.5819 20.531 19.0254C20.7696 19.4766 21.0683 19.6465 21.6231 19.6465C22.4435 19.6465 22.8958 19.138 22.8271 18.293C22.7899 17.8342 21.7333 14.5195 21.6244 14.5195C21.5916 14.5195 21.3157 15.2615 21.0112 16.1683ZM13.584 29.584C13.584 29.613 13.84 30.1667 14.1528 30.8145L14.7217 31.9922H21.6395H28.5574L29.1508 30.802C29.4772 30.1474 29.7442 29.5937 29.7442 29.5715C29.7442 29.5494 26.1081 29.5312 21.6641 29.5312C17.2201 29.5312 13.584 29.555 13.584 29.584Z" fill="url(#paint1_linear_2091_24502)"/>
<defs>
<linearGradient id="paint0_linear_2091_24502" x1="19.9061" y1="33.8941" x2="23.077" y2="43.5326" gradientUnits="userSpaceOnUse">
<stop stop-color="#0D95FF"/>
<stop offset="1" stop-color="#7BB9E8"/>
</linearGradient>
<linearGradient id="paint1_linear_2091_24502" x1="18.4931" y1="-2.36979" x2="40.3398" y2="26.213" gradientUnits="userSpaceOnUse">
<stop stop-color="#0D95FF"/>
<stop offset="1" stop-color="#7BB9E8"/>
</linearGradient>
</defs>
</svg>
