<svg width="43" height="42" viewBox="0 0 43 42" fill="none" xmlns="http://www.w3.org/2000/svg">
<path d="M15.9405 40V30.795C15.9405 29.5475 15.2805 28.4262 14.2183 27.8683C12.4294 26.9283 11.2998 25.08 11.2002 23H30.2002C30.1002 25.08 28.971 26.9283 27.1821 27.8683C26.1199 28.4258 25.4599 29.5471 25.4599 30.795V40H15.9405Z" fill="url(#paint0_linear_2091_24489)"/>
<path opacity="0.52" d="M35.7002 3H5.7002C4.32145 3 3.2002 4.15329 3.2002 5.57143V17.1429C3.2002 18.561 4.32145 21 5.7002 21C32.0785 21 24.1531 21 35.7002 21C37.0789 21 38.2002 19.8467 38.2002 18.4286V5.57143C38.2002 4.15329 37.0789 3 35.7002 3ZM35.7002 18.4286H5.7002V15.8571H35.7002V18.4286ZM35.7002 13.2857H5.7002V10.7143H35.7002V13.2857ZM35.7002 8.14286H5.7002V5.57143H35.7002V8.14286Z" fill="url(#paint1_linear_2091_24489)"/>
<defs>
<linearGradient id="paint0_linear_2091_24489" x1="18.049" y1="21.7407" x2="27.4347" y2="41.2978" gradientUnits="userSpaceOnUse">
<stop stop-color="#0D95FF"/>
<stop offset="1" stop-color="#7BB9E8"/>
</linearGradient>
<linearGradient id="paint1_linear_2091_24489" x1="15.8165" y1="1.66667" x2="22.3473" y2="25.3419" gradientUnits="userSpaceOnUse">
<stop stop-color="#0D95FF"/>
<stop offset="1" stop-color="#7BB9E8"/>
</linearGradient>
</defs>
</svg>
