<svg width="42" height="42" viewBox="0 0 42 42" fill="none" xmlns="http://www.w3.org/2000/svg">
<path d="M6.39609 16H4V34.4609C4 36.4126 5.5227 38 7.39437 38H30.4547C31.3296 38 32.1774 37.6209 32.7799 36.959L37.1182 32.1981C37.6867 31.5738 38 30.7557 38 29.8945V16H35.6039H6.39609ZM35.9981 29.2422C36.1758 29.2422 36.2674 29.4639 36.1456 29.5985L35.4901 30.3223L31.0147 35.2634L30.0176 36.3643C29.8916 36.5033 29.6675 36.4102 29.6675 36.2193V35.5015V31.5322C29.6675 30.2728 30.6558 29.2422 31.8636 29.2422H35.6035H35.9981Z" fill="url(#paint0_linear_2091_24472)"/>
<path opacity="0.52" d="M33.0377 7V9.12635C33.0377 9.22227 33.0308 9.31626 33.0201 9.40948C32.8799 10.6275 31.5579 11.2857 30.3095 11.2857H30.1513C28.9033 11.2857 27.8724 10.6275 27.7322 9.40948C27.7215 9.31626 27.7146 9.22227 27.7146 9.12635V7L14.119 7V9.12635C14.119 9.22227 14.1122 9.31626 14.1014 9.40948C13.9612 10.6275 12.5341 11.2857 11.2857 11.2857H11.1271C9.87909 11.2857 8.72017 10.6275 8.57997 9.40948C8.56924 9.31626 8.56234 9.22227 8.56234 9.12635V7H7.39437C5.5227 7 4 8.5312 4 10.4133V13.5H6.39609H35.6039H38V10.4133C38 8.5312 36.4773 7 34.606 7H33.0377Z" fill="url(#paint1_linear_2091_24472)"/>
<path opacity="0.52" d="M11.4193 10H11.5811C12.3635 10 13 9.44823 13 8.77004V5.22996C12.9996 4.55177 12.3631 4 11.5807 4H11.4189C10.6365 4 10 4.55177 10 5.22996V8.77004C10.0004 9.44823 10.6369 10 11.4193 10Z" fill="url(#paint2_linear_2091_24472)"/>
<path opacity="0.52" d="M30.4191 10H30.581C31.3634 10 32 9.44823 32 8.77004V5.22996C31.9996 4.55177 31.363 4 30.5806 4H30.4191C29.6366 4 29 4.55177 29 5.22996V8.77004C29 9.44823 29.6366 10 30.4191 10Z" fill="url(#paint3_linear_2091_24472)"/>
<defs>
<linearGradient id="paint0_linear_2091_24472" x1="16.2558" y1="14.3704" x2="25.901" y2="42.1611" gradientUnits="userSpaceOnUse">
<stop stop-color="#0D95FF"/>
<stop offset="1" stop-color="#7BB9E8"/>
</linearGradient>
<linearGradient id="paint1_linear_2091_24472" x1="16.2558" y1="6.51852" x2="17.1894" y2="15.6227" gradientUnits="userSpaceOnUse">
<stop stop-color="#0D95FF"/>
<stop offset="1" stop-color="#7BB9E8"/>
</linearGradient>
<linearGradient id="paint2_linear_2091_24472" x1="11.0814" y1="3.55556" x2="15.3171" y2="7.504" gradientUnits="userSpaceOnUse">
<stop stop-color="#0D95FF"/>
<stop offset="1" stop-color="#7BB9E8"/>
</linearGradient>
<linearGradient id="paint3_linear_2091_24472" x1="30.0814" y1="3.55556" x2="34.3171" y2="7.504" gradientUnits="userSpaceOnUse">
<stop stop-color="#0D95FF"/>
<stop offset="1" stop-color="#7BB9E8"/>
</linearGradient>
</defs>
</svg>
