<svg width="24" height="24" viewBox="0 0 24 24" fill="none" xmlns="http://www.w3.org/2000/svg">
<path fill-rule="evenodd" clip-rule="evenodd" d="M19.9312 19.878C20.5793 19.878 21.0312 20.166 21.0312 20.848C21.0312 21.532 20.6523 21.887 20.0982 21.887H3.99825C3.33925 21.887 3.03125 21.316 3.03125 20.849C3.03125 20.382 3.33925 19.879 4.05825 19.879H19.9312V19.878ZM12.0013 2C15.8773 2 19.0013 5.192 19.0013 9.11C19.0013 11.49 17.7593 13.818 15.7143 16.024C14.8224 16.9822 13.845 17.8572 12.7943 18.638C12.6593 18.738 12.5603 18.808 12.5043 18.846C12.3559 18.9465 12.1809 19.0002 12.0017 19.0002C11.8226 19.0002 11.6476 18.9465 11.4993 18.846C11.1519 18.5998 10.8127 18.3424 10.4823 18.074C9.70412 17.4425 8.971 16.7575 8.28825 16.024C6.24325 13.818 5.00125 11.49 5.00125 9.109C5.00125 5.192 8.12525 2 12.0013 2ZM12.0013 4.001C9.11125 4.001 7.02925 6.331 7.02925 9.328C7.02925 11.207 7.86625 12.745 9.64925 14.668C10.2892 15.358 10.9662 15.992 11.6543 16.552C11.7922 16.664 11.8763 16.714 12.0013 16.81C12.1263 16.714 12.1793 16.664 12.3173 16.552C13.026 15.9713 13.6933 15.3417 14.3142 14.668C16.0972 12.745 17.0043 11.207 17.0043 9.328C17.0043 6.332 14.8903 4.001 12.0013 4.001ZM12.0013 7C12.3991 7 12.7806 7.15804 13.0619 7.43934C13.3432 7.72064 13.5013 8.10218 13.5013 8.5C13.5013 8.89782 13.3432 9.27936 13.0619 9.56066C12.7806 9.84196 12.3991 10 12.0013 10C11.6034 10 11.2219 9.84196 10.9406 9.56066C10.6593 9.27936 10.5013 8.89782 10.5013 8.5C10.5013 8.10218 10.6593 7.72064 10.9406 7.43934C11.2219 7.15804 11.6034 7 12.0013 7Z" fill="#014661"/>
</svg>
