<svg width="41" height="40" viewBox="0 0 41 40" fill="none" xmlns="http://www.w3.org/2000/svg">
<path d="M20.012 0C11.6599 0 9.21722 0.00861611 8.74241 0.0480041C7.02842 0.190478 5.96187 0.460347 4.79993 1.03886C3.90447 1.48351 3.19825 1.99894 2.50127 2.72146C1.23193 4.03911 0.462637 5.66017 0.184152 7.5871C0.0487563 8.52257 0.00936831 8.71335 0.00136764 13.4916C-0.00170955 15.0844 0.00136764 17.1805 0.00136764 19.9922C0.00136764 28.3375 0.0105992 30.7777 0.0506026 31.2516C0.189076 32.9194 0.450636 33.9687 1.00453 35.1165C2.06308 37.3136 4.08479 38.963 6.46653 39.5784C7.29121 39.7908 8.20206 39.9077 9.37139 39.9631C9.86682 39.9846 14.9165 40 19.9692 40C25.0219 40 30.0747 39.9938 30.5578 39.9692C31.9118 39.9055 32.698 39.8 33.5673 39.5753C34.7482 39.2725 35.8489 38.7155 36.7923 37.9432C37.7357 37.171 38.4991 36.2021 39.0293 35.1042C39.5724 33.9841 39.8478 32.8948 39.9724 31.314C39.9995 30.9694 40.0109 25.4745 40.0109 19.9869C40.0109 14.4985 39.9986 9.01369 39.9715 8.66904C39.8453 7.06275 39.5699 5.98266 39.0093 4.84102C38.5492 3.90648 38.0384 3.20858 37.2968 2.49498C35.9736 1.23087 34.355 0.461578 32.426 0.1834C31.4914 0.0483118 31.3052 0.0083084 26.5233 0H20.012Z" fill="url(#paint0_radial_2091_24915)"/>
<path d="M20.012 0C11.6599 0 9.21722 0.00861611 8.74241 0.0480041C7.02842 0.190478 5.96187 0.460347 4.79993 1.03886C3.90447 1.48351 3.19825 1.99894 2.50127 2.72146C1.23193 4.03911 0.462637 5.66017 0.184152 7.5871C0.0487563 8.52257 0.00936831 8.71335 0.00136764 13.4916C-0.00170955 15.0844 0.00136764 17.1805 0.00136764 19.9922C0.00136764 28.3375 0.0105992 30.7777 0.0506026 31.2516C0.189076 32.9194 0.450636 33.9687 1.00453 35.1165C2.06308 37.3136 4.08479 38.963 6.46653 39.5784C7.29121 39.7907 8.20206 39.9077 9.37139 39.9631C9.86682 39.9846 14.9165 40 19.9692 40C25.0219 40 30.0747 39.9938 30.5578 39.9692C31.9118 39.9055 32.698 39.8 33.5673 39.5753C34.7482 39.2725 35.8489 38.7155 36.7923 37.9432C37.7357 37.171 38.4991 36.2021 39.0293 35.1042C39.5724 33.9841 39.8478 32.8948 39.9724 31.314C39.9995 30.9694 40.0109 25.4745 40.0109 19.9869C40.0109 14.4985 39.9986 9.01369 39.9715 8.66904C39.8454 7.06275 39.5699 5.98266 39.0093 4.84102C38.5492 3.90648 38.0384 3.20858 37.2968 2.49498C35.9736 1.23087 34.355 0.461577 32.426 0.1834C31.4914 0.0483118 31.3052 0.00830839 26.5233 0H20.012Z" fill="url(#paint1_radial_2091_24915)"/>
<path d="M20.0019 5.23047C15.9905 5.23047 15.487 5.24801 13.9115 5.31971C12.3391 5.39171 11.2657 5.64066 10.3266 6.00592C9.35512 6.38318 8.53106 6.88784 7.71006 7.70914C6.88846 8.53013 6.3838 9.3542 6.0053 10.3254C5.63912 11.2648 5.38987 12.3385 5.31909 13.9103C5.24893 15.4858 5.23047 15.9895 5.23047 20.0009C5.23047 24.0124 5.24832 24.5143 5.31971 26.0898C5.39202 27.6622 5.64097 28.7355 6.00592 29.6747C6.38349 30.6462 6.88815 31.4702 7.70945 32.2912C8.53013 33.1128 9.3542 33.6187 10.3251 33.996C11.2648 34.3612 12.3385 34.6102 13.9106 34.6822C15.4861 34.7539 15.9892 34.7714 20.0003 34.7714C24.0121 34.7714 24.5139 34.7539 26.0895 34.6822C27.6619 34.6102 28.7365 34.3612 29.6762 33.996C30.6474 33.6187 31.4702 33.1128 32.2909 32.2912C33.1125 31.4702 33.6172 30.6462 33.9957 29.675C34.3588 28.7355 34.608 27.6619 34.6819 26.0901C34.7527 24.5146 34.7711 24.0124 34.7711 20.0009C34.7711 15.9895 34.7527 15.4861 34.6819 13.9106C34.608 12.3381 34.3588 11.2648 33.9957 10.3257C33.6172 9.3542 33.1125 8.53013 32.2909 7.70914C31.4693 6.88753 30.6477 6.38287 29.6753 6.00592C28.7337 5.64066 27.6597 5.39171 26.0873 5.31971C24.5118 5.24801 24.0102 5.23047 19.9976 5.23047H20.0019ZM18.6768 7.89223C19.0701 7.89162 19.5089 7.89223 20.0019 7.89223C23.9456 7.89223 24.413 7.90639 25.9704 7.97716C27.4105 8.04301 28.1921 8.28365 28.7128 8.48582C29.402 8.75354 29.8935 9.07356 30.4101 9.59053C30.9271 10.1075 31.2471 10.5998 31.5155 11.2891C31.7176 11.8092 31.9586 12.5908 32.0241 14.0309C32.0949 15.588 32.1103 16.0557 32.1103 19.9976C32.1103 23.9394 32.0949 24.4072 32.0241 25.9642C31.9583 27.4043 31.7176 28.1859 31.5155 28.706C31.2477 29.3953 30.9271 29.8861 30.4101 30.4028C29.8932 30.9197 29.4024 31.2397 28.7128 31.5075C28.1927 31.7106 27.4105 31.9506 25.9704 32.0164C24.4133 32.0872 23.9456 32.1026 20.0019 32.1026C16.0578 32.1026 15.5904 32.0872 14.0334 32.0164C12.5932 31.95 11.8116 31.7093 11.2907 31.5072C10.6014 31.2394 10.109 30.9194 9.59207 30.4024C9.0751 29.8855 8.75507 29.3944 8.48674 28.7048C8.28457 28.1847 8.04363 27.4031 7.97809 25.963C7.90731 24.4059 7.89316 23.9382 7.89316 19.9939C7.89316 16.0495 7.90731 15.5843 7.97809 14.0272C8.04394 12.5871 8.28457 11.8055 8.48674 11.2848C8.75446 10.5955 9.0751 10.1032 9.59207 9.58622C10.109 9.06925 10.6014 8.74923 11.2907 8.4809C11.8113 8.2778 12.5932 8.03778 14.0334 7.97162C15.3959 7.91008 15.924 7.89162 18.6768 7.88854V7.89223ZM27.8862 10.3447C27.5356 10.3447 27.1929 10.4487 26.9014 10.6435C26.6099 10.8383 26.3828 11.1151 26.2486 11.4391C26.1145 11.763 26.0794 12.1194 26.1479 12.4632C26.2163 12.8071 26.3852 13.1229 26.6331 13.3707C26.8811 13.6186 27.197 13.7874 27.5408 13.8557C27.8847 13.924 28.2411 13.8888 28.5649 13.7546C28.8888 13.6203 29.1656 13.393 29.3603 13.1015C29.555 12.8099 29.6588 12.4672 29.6587 12.1166C29.6587 11.138 28.8648 10.3441 27.8862 10.3441V10.3447ZM20.0019 12.4157C15.8129 12.4157 12.4166 15.812 12.4166 20.0009C12.4166 24.1899 15.8129 27.5847 20.0019 27.5847C24.1908 27.5847 27.5862 24.1899 27.5862 20.0009C27.5862 15.812 24.1905 12.4157 20.0016 12.4157H20.0019ZM20.0019 15.0775C22.7209 15.0775 24.9254 17.2816 24.9254 20.0009C24.9254 22.7199 22.7209 24.9244 20.0019 24.9244C17.2826 24.9244 15.0784 22.7199 15.0784 20.0009C15.0784 17.2816 17.2826 15.0775 20.0019 15.0775Z" fill="white"/>
<defs>
<radialGradient id="paint0_radial_2091_24915" cx="0" cy="0" r="1" gradientUnits="userSpaceOnUse" gradientTransform="translate(10.6279 43.0808) rotate(-90) scale(39.643 36.8811)">
<stop stop-color="#FFDD55"/>
<stop offset="0.1" stop-color="#FFDD55"/>
<stop offset="0.5" stop-color="#FF543E"/>
<stop offset="1" stop-color="#C837AB"/>
</radialGradient>
<radialGradient id="paint1_radial_2091_24915" cx="0" cy="0" r="1" gradientUnits="userSpaceOnUse" gradientTransform="translate(-6.70204 2.88153) rotate(78.6776) scale(17.7207 73.0641)">
<stop stop-color="#3771C8"/>
<stop offset="0.128" stop-color="#3771C8"/>
<stop offset="1" stop-color="#6600FF" stop-opacity="0"/>
</radialGradient>
</defs>
</svg>
