<svg width="24" height="24" viewBox="0 0 24 24" fill="none" xmlns="http://www.w3.org/2000/svg">
<path fill-rule="evenodd" clip-rule="evenodd" d="M8.01172 3.00012C8.64585 2.99406 9.2605 3.21909 9.74082 3.63316C10.2211 4.04723 10.5343 4.62201 10.6217 5.25012C10.7137 5.94612 10.8847 6.63012 11.1297 7.28512C11.4887 8.23712 11.2597 9.31212 10.5377 10.0391L10.0747 10.5021C10.9672 11.858 12.1285 13.0162 13.4867 13.9051L13.9567 13.4371C14.3111 13.0874 14.7581 12.8462 15.245 12.7422C15.7319 12.6382 16.2384 12.6757 16.7047 12.8501C17.3647 13.0961 18.0497 13.2661 18.7557 13.3591C19.3868 13.4475 19.9637 13.764 20.3773 14.2487C20.791 14.7335 21.0127 15.353 21.0007 15.9901V18.3841C21.0025 18.7488 20.9276 19.1098 20.781 19.4438C20.6344 19.7777 20.4192 20.0771 20.1495 20.3226C19.8798 20.5681 19.5615 20.7542 19.2153 20.8688C18.8691 20.9835 18.5026 21.0241 18.1397 20.9881C15.5126 20.7036 12.9886 19.808 10.7697 18.3731C8.70504 17.0644 6.95363 15.3175 5.63972 13.2561C4.19155 11.0257 3.29075 8.48467 3.01072 5.84012C2.97789 5.47944 3.02067 5.11588 3.13631 4.77266C3.25195 4.42945 3.43791 4.11413 3.68232 3.84686C3.92672 3.57959 4.22419 3.36624 4.55572 3.22044C4.88725 3.07464 5.24555 2.9996 5.60772 3.00012H8.01172ZM8.02172 5.00012H5.60872C5.52583 5.00039 5.44387 5.01755 5.36784 5.05055C5.2918 5.08355 5.22329 5.1317 5.16649 5.19206C5.10968 5.25243 5.06578 5.32373 5.03745 5.40162C5.00912 5.47952 4.99696 5.56237 5.00172 5.64512C5.24998 7.97397 6.04453 10.2113 7.32072 12.1751C8.47957 13.9939 10.0249 15.5351 11.8467 16.6891C13.8004 17.9543 16.0229 18.745 18.3367 18.9981C18.4212 19.0055 18.5062 18.9952 18.5865 18.9678C18.6667 18.9405 18.7404 18.8967 18.8027 18.8393C18.8651 18.7819 18.9149 18.7122 18.9488 18.6345C18.9827 18.5568 19 18.4729 18.9997 18.3881V15.9791C19.0081 15.828 18.9601 15.6792 18.8652 15.5614C18.7703 15.4436 18.6351 15.3651 18.4857 15.3411C17.6381 15.2292 16.8058 15.0219 16.0047 14.7231C15.8964 14.6823 15.7787 14.6731 15.6654 14.6967C15.5521 14.7202 15.4478 14.7755 15.3647 14.8561L14.3437 15.8761C14.1889 16.0306 13.9878 16.1301 13.771 16.1594C13.5543 16.1887 13.3339 16.1461 13.1437 16.0381C10.9737 14.8073 9.17613 13.0135 7.94072 10.8461C7.83217 10.6555 7.78933 10.4344 7.81878 10.2171C7.84824 9.99967 7.94836 9.798 8.10372 9.64312L9.12072 8.62712C9.20229 8.54467 9.25841 8.44047 9.28235 8.32697C9.30629 8.21348 9.29704 8.0955 9.25572 7.98712C8.95805 7.19098 8.7514 6.36372 8.63972 5.52112C8.61802 5.37364 8.54307 5.23922 8.42902 5.14323C8.31498 5.04724 8.16973 4.99633 8.02072 5.00012H8.02172Z" fill="#0D95FF"/>
</svg>
