<svg width="68" height="68" viewBox="0 0 68 68" fill="none" xmlns="http://www.w3.org/2000/svg">
<g opacity="0.7">
<path d="M12.6294 33.1504H22.1008V55.2504H12.6294C12.2107 55.2504 11.8092 55.0713 11.5131 54.7525C11.2171 54.4337 11.0508 54.0013 11.0508 53.5504V34.8504C11.0508 34.3995 11.2171 33.9671 11.5131 33.6483C11.8092 33.3295 12.2107 33.1504 12.6294 33.1504V33.1504Z" stroke="#3991C8"/>
<path d="M25.5 34.1105L33.6668 17.8496C34.5248 17.8496 35.3743 18.0178 36.167 18.3447C36.9597 18.6716 37.6799 19.1507 38.2866 19.7547C38.8933 20.3587 39.3745 21.0757 39.7029 21.8649C40.0312 22.654 40.2002 23.4998 40.2002 24.354V29.2322H52.8333C53.2965 29.2322 53.7544 29.3303 54.1766 29.5199C54.5988 29.7095 54.9757 29.9864 55.2823 30.3321C55.5888 30.6778 55.818 31.0845 55.9546 31.5251C56.0913 31.9657 56.1322 32.4302 56.0748 32.8878L53.6247 52.4008C53.526 53.1874 53.1421 53.9109 52.5452 54.4355C51.9483 54.9601 51.1795 55.2496 50.3833 55.2496H25.5" stroke="#0D95FF"/>
<path opacity="0.52" d="M24.1071 17.8496L15.3008 7.0918M36.7422 11.4746L37.1251 5.09961M49.7602 15.8574L57.8008 8.28711" stroke="#D2E6F5" stroke-width="2" stroke-linecap="round" stroke-linejoin="round"/>
</g>
</svg>
