<svg width="68" height="68" viewBox="0 0 68 68" fill="none" xmlns="http://www.w3.org/2000/svg">
<g opacity="0.7">
<path fill-rule="evenodd" clip-rule="evenodd" d="M23.0762 13.7373H19.0508H19.0121C17.1592 13.7373 15.7176 13.7373 14.5951 13.8882C13.4504 14.0421 12.563 14.3612 11.8688 15.0553C11.1746 15.7495 10.8556 16.6369 10.7017 17.7816C10.5508 18.9041 10.5508 20.3458 10.5508 22.1986L10.5508 22.2373V27.5498L10.5508 27.5695C10.5507 27.6694 10.5507 27.7884 10.5644 27.8907C10.581 28.0143 10.6255 28.1851 10.7705 28.3301C10.9155 28.4751 11.0863 28.5196 11.2099 28.5362C11.3122 28.55 11.4312 28.5499 11.5311 28.5498L11.5508 28.5498H56.4508L56.4705 28.5498C56.5704 28.5499 56.6894 28.55 56.7917 28.5362C56.9153 28.5196 57.0861 28.4751 57.2311 28.3301C57.3761 28.1851 57.4206 28.0143 57.4372 27.8907C57.4509 27.7884 57.4509 27.6695 57.4508 27.5696V27.5695L57.4508 27.5498V22.2373V22.1987C57.4508 20.3458 57.4508 18.9041 57.2999 17.7816C57.146 16.6369 56.827 15.7495 56.1328 15.0553C55.4386 14.3612 54.5512 14.0421 53.4065 13.8882C52.284 13.7373 50.8423 13.7373 48.9895 13.7373H48.9508H44.9262L44.9262 14.7373H48.9508C50.8506 14.7373 52.2251 14.7384 53.2733 14.8793C54.3071 15.0183 54.9483 15.285 55.4257 15.7624C55.9031 16.2398 56.1698 16.881 56.3088 17.9148C56.4497 18.963 56.4508 20.3376 56.4508 22.2373V27.5498H11.5508V22.2373C11.5508 20.3376 11.5519 18.963 11.6928 17.9148C11.8318 16.881 12.0985 16.2398 12.5759 15.7624C13.0533 15.285 13.6945 15.0183 14.7283 14.8793C15.7765 14.7384 17.151 14.7373 19.0508 14.7373H23.0762L23.0762 13.7373ZM27.0762 14.7373H40.9262L40.9262 13.7373H27.0762V14.7373Z" fill="url(#paint0_linear_2091_24098)"/>
<path d="M11.0508 31.0996C11.0508 30.8639 11.0508 30.7461 11.124 30.6728C11.1972 30.5996 11.3151 30.5996 11.5508 30.5996H56.4508C56.6865 30.5996 56.8043 30.5996 56.8776 30.6728C56.9508 30.7461 56.9508 30.8639 56.9508 31.0996V47.2496C56.9508 51.0208 56.9508 52.9065 55.7792 54.078C54.6076 55.2496 52.722 55.2496 48.9508 55.2496H19.0508C15.2795 55.2496 13.3939 55.2496 12.2224 54.078C11.0508 52.9065 11.0508 51.0208 11.0508 47.2496V31.0996Z" stroke="#0D95FF"/>
<path d="M25.0742 10.2002L25.0742 19.5502" stroke="#0584D1" stroke-width="2" stroke-linecap="round"/>
<path d="M42.9258 10.2002L42.9258 19.5502" stroke="#0584D1" stroke-width="2" stroke-linecap="round"/>
<rect opacity="0.52" x="26" y="38" width="28" height="3" rx="1" fill="#0D95FF" fill-opacity="0.3"/>
<rect opacity="0.52" x="26" y="44" width="15" height="3" rx="1" fill="#0D95FF" fill-opacity="0.3"/>
</g>
<defs>
<linearGradient id="paint0_linear_2091_24098" x1="34.0001" y1="28.5405" x2="34.0001" y2="13.7417" gradientUnits="userSpaceOnUse">
<stop stop-color="#5DB3FA"/>
<stop offset="1" stop-color="#1E91CD"/>
</linearGradient>
</defs>
</svg>
