<svg width="68" height="68" viewBox="0 0 68 68" fill="none" xmlns="http://www.w3.org/2000/svg">
<g opacity="0.7">
<path d="M34.032 29.1159C38.7047 29.1159 42.4926 25.262 42.4926 20.5081C42.4926 15.7542 38.7047 11.9004 34.032 11.9004C29.3594 11.9004 25.5714 15.7542 25.5714 20.5081C25.5714 25.262 29.3594 29.1159 34.032 29.1159Z" stroke="#0D95FF"/>
<path d="M36.3475 32.5193C32.0954 32.1584 28.3995 32.5234 25.2116 35.2005C19.8769 39.5479 20.9035 45.4015 20.9035 52.5624C20.9035 54.457 22.4186 56.0273 24.3091 56.0273C44.8365 56.0273 45.6535 56.701 46.8707 53.9585C47.2699 53.031 47.1605 53.3257 47.1605 44.4533C47.1605 37.4063 41.1629 32.5193 36.3475 32.5193Z" stroke="#0D95FF"/>
<path d="M51.2399 29.6474C54.2152 29.6474 56.6271 27.1968 56.6271 24.1738C56.6271 21.1508 54.2152 18.7002 51.2399 18.7002C48.2646 18.7002 45.8527 21.1508 45.8527 24.1738C45.8527 27.1968 48.2646 29.6474 51.2399 29.6474Z" stroke="#0D95FF"/>
<path d="M16.7617 29.6474C19.737 29.6474 22.1489 27.1968 22.1489 24.1738C22.1489 21.1508 19.737 18.7002 16.7617 18.7002C13.7865 18.7002 11.3745 21.1508 11.3745 24.1738C11.3745 27.1968 13.7865 29.6474 16.7617 29.6474Z" stroke="#0D95FF"/>
<path d="M22.0696 34.5627C19.949 32.7975 18.0285 33.0311 15.5765 33.0311C11.9093 33.0311 8.92578 36.0446 8.92578 39.7477V50.6163C8.92578 52.2245 10.2177 53.5322 11.8065 53.5322C18.6655 53.5322 17.8392 53.6583 17.8392 53.2316C17.8392 45.5302 16.9414 39.8824 22.0696 34.5627Z" stroke="#0D95FF"/>
<path d="M52.425 33.031C49.9596 33.031 48.0497 32.7997 45.932 34.5626C51.0219 39.8428 50.1624 45.1053 50.1624 53.2315C50.1624 53.6609 49.4765 53.5321 56.0923 53.5321C57.7378 53.5321 59.0758 52.1776 59.0758 50.5127V39.7476C59.0758 36.0445 56.0923 33.031 52.425 33.031Z" stroke="#0D95FF"/>
</g>
</svg>
