<svg width="68" height="68" viewBox="0 0 68 68" fill="none" xmlns="http://www.w3.org/2000/svg">
<g opacity="0.7">
<path fill-rule="evenodd" clip-rule="evenodd" d="M30.6084 22.0996C28.161 22.1 23.5483 22.6479 23.5483 27.9189C23.5483 33.19 23.0325 44.1264 22.7746 48.9358C22.7262 50.9236 23.732 54.8994 28.1422 54.8994H56.189C58.2522 55.0436 62.369 54.0529 62.3303 48.9358C62.2916 43.8186 61.7017 32.7924 61.4115 27.9189C61.4115 25.0333 60.5218 22.0996 55.0285 22.0996H30.6084ZM29.7091 28.0632C29.3467 28.0632 29.0485 28.3471 29.0328 28.7073L28.2212 47.2713C28.2045 47.6543 28.5122 47.9739 28.8976 47.9739H56.1106C56.496 47.9739 56.8037 47.6543 56.787 47.2713L55.9754 28.7073C55.9597 28.3471 55.6615 28.0632 55.299 28.0632H29.7091Z" stroke="#0D95FF"/>
<path d="M25.144 60.3585C23.2871 59.4351 22.4361 56.1744 22.5328 53.8659C24.1576 56.4822 26.8204 57.04 27.9487 56.992H57.3012C60.0092 56.992 61.879 54.94 62.4754 53.914C62.4432 55.2606 62.2376 58.0981 60.6862 59.6852C59.3322 61.0703 56.7048 61.2562 55.5604 61.1761V62.4746H52.0787V61.1761H32.8328V62.3784H29.3994V61.1761C28.7547 61.2883 27.0009 61.2819 25.144 60.3585Z" stroke="#0D95FF"/>
<g opacity="0.25">
<path d="M42.0742 31.4502H53.1242V32.8102H42.0742V31.4502Z" fill="url(#paint0_linear_2091_24109)"/>
<path d="M42.0742 33.4902H53.1242V34.8502H42.0742V33.4902Z" fill="url(#paint1_linear_2091_24109)"/>
</g>
<path d="M17.4792 30.1643C19.1616 35.275 23.3754 35.4173 23.3754 35.4173V36.5498C23.3754 36.5498 17.9515 35.8267 16.4167 30.1643H13.9669C12.8571 30.1643 13.0519 29.448 13.288 29.0899C13.6619 27.667 14.4627 24.3683 14.6752 22.5563C14.8877 20.7443 14.7638 20.1171 13.6422 19.6234C13.9078 17.8231 14.1735 16.3421 14.1735 16.3421C14.1735 16.3421 8.9492 14.1062 7.38487 13.2931L6.64698 11.2604L8.24083 6.81759C8.24083 6.81759 11.7486 6.46693 20.6964 8.8793C26.8357 10.5345 32.0599 12.6543 30.8498 13.2931C29.2557 14.1347 28.8722 16.557 28.2524 17.0971C26.1863 18.8975 23.0577 18.2006 22.3198 18.4329C20.858 18.8931 19.2502 19.8848 20.1061 24.8213C20.7909 28.7704 19.9716 29.5137 19.6339 29.7287C19.1321 30.0481 17.4505 30.0772 17.4792 30.1643Z" stroke="#0D95FF"/>
<path d="M5.52539 9.19872L6.76505 10.2151L7.70955 7.45643L6.02716 7.74681L5.52539 9.19872Z" stroke="#0D95FF"/>
<path d="M13.4651 19.0427L13.8193 16.6325L13.8174 16.6326C13.4527 16.652 12.6975 16.6921 12.5796 17.6198C12.4848 18.3664 13.1207 18.8781 13.4651 19.0427Z" stroke="#0D95FF"/>
</g>
<defs>
<linearGradient id="paint0_linear_2091_24109" x1="46.0574" y1="31.1983" x2="46.8305" y2="35.883" gradientUnits="userSpaceOnUse">
<stop stop-color="#0D95FF"/>
<stop offset="1" stop-color="#7BB9E8"/>
</linearGradient>
<linearGradient id="paint1_linear_2091_24109" x1="46.0574" y1="31.1983" x2="46.8305" y2="35.883" gradientUnits="userSpaceOnUse">
<stop stop-color="#0D95FF"/>
<stop offset="1" stop-color="#7BB9E8"/>
</linearGradient>
</defs>
</svg>
