<svg width="197" height="39" viewBox="0 0 197 39" fill="none" xmlns="http://www.w3.org/2000/svg">
<path fill-rule="evenodd" clip-rule="evenodd" d="M98.4843 0.541992L100.486 4.47258L104.917 5.08587L101.715 8.15229L102.487 12.4732L98.4843 10.4382L94.539 12.4732L95.2823 8.15229L92.0802 5.08587L96.5117 4.47258L98.4843 0.541992Z" fill="url(#paint0_linear_2063_349)"/>
<path fill-rule="evenodd" clip-rule="evenodd" d="M117.184 4.51904L118.603 7.49091L121.838 8.01535L119.511 10.3171L120.051 13.6095L117.184 12.0652L114.29 13.6095L114.829 10.3171L112.502 8.01535L115.737 7.49091L117.184 4.51904Z" fill="url(#paint1_linear_2063_349)"/>
<path fill-rule="evenodd" clip-rule="evenodd" d="M80.1187 4.51904L81.6308 7.49091L85.0784 8.01535L82.5985 10.3171L83.2034 13.6095L80.1187 12.0652L77.034 13.6095L77.6389 10.3171L75.159 8.01535L78.6066 7.49091L80.1187 4.51904Z" fill="url(#paint2_linear_2063_349)"/>
<path fill-rule="evenodd" clip-rule="evenodd" d="M131.466 11.3369L132.449 13.2217L134.675 13.5179L133.056 14.9719L133.432 17.0184L131.466 16.049L129.471 17.0184L129.876 14.9719L128.257 13.5179L130.483 13.2217L131.466 11.3369Z" fill="url(#paint3_linear_2063_349)"/>
<path fill-rule="evenodd" clip-rule="evenodd" d="M65.5169 11.3369L66.5334 13.2217L68.7407 13.5179L67.1143 14.9719L67.4918 17.0184L65.5169 16.049L63.542 17.0184L63.9196 14.9719L62.3223 13.5179L64.5295 13.2217L65.5169 11.3369Z" fill="url(#paint4_linear_2063_349)"/>
<path d="M9.75117 38.4174H5.50113C1.83371 38.4174 0 37.2174 0 34.8173V29.1231C0 26.8454 1.80305 25.7066 5.40914 25.7066H7.78254C8.56754 25.7066 8.96004 26.0311 8.96004 26.6801C8.96004 27.3414 8.56754 27.672 7.78254 27.672H5.46434C3.5141 27.672 2.53898 28.1741 2.53898 29.1782V34.7438C2.53898 35.8826 3.57543 36.452 5.64832 36.452H9.62238C11.683 36.452 12.7133 35.8826 12.7133 34.7438V31.5293C12.7133 30.8558 13.1365 30.5191 13.9828 30.5191C14.8414 30.5191 15.2707 30.8558 15.2707 31.5293V34.8173C15.2707 37.2174 13.4309 38.4174 9.75117 38.4174Z" fill="url(#paint5_linear_2063_349)"/>
<path d="M30.7425 38.2521L21.0649 33.605V37.499C21.0649 38.1725 20.6356 38.5093 19.777 38.5093C18.9307 38.5093 18.5075 38.1725 18.5075 37.499V26.5148C18.5075 25.976 18.8571 25.7066 19.5562 25.7066H28.2035C32.104 25.7066 34.0542 26.7903 34.0542 28.9578V30.2252C34.0542 32.3314 32.104 33.3845 28.2035 33.3845H25.131L32.288 36.5255C32.7663 36.7337 33.0055 37.0521 33.0055 37.4807C33.0055 38.1664 32.5701 38.5093 31.6992 38.5093C31.4048 38.5093 31.0859 38.4236 30.7425 38.2521ZM21.0649 27.8189V31.6028H28.3139C30.4359 31.6028 31.4968 31.1436 31.4968 30.2252V29.0496C31.4968 28.1312 30.4359 27.672 28.3139 27.672H21.2305C21.1201 27.672 21.0649 27.721 21.0649 27.8189Z" fill="url(#paint6_linear_2063_349)"/>
<path d="M50.334 37.8113L48.6229 35.203H39.6997L38.007 37.8113C37.6881 38.2766 37.2772 38.5093 36.7743 38.5093C35.8789 38.5093 35.4312 38.1787 35.4312 37.5174C35.4312 37.297 35.5416 37.0276 35.7624 36.7092L42.8274 26.276C43.1218 25.8352 43.5633 25.6147 44.1521 25.6147C44.704 25.6147 45.1333 25.8352 45.44 26.276L52.505 36.6908C52.7258 37.0092 52.8362 37.2847 52.8362 37.5174C52.8362 38.1787 52.3946 38.5093 51.5115 38.5093C51.0208 38.5093 50.6283 38.2766 50.334 37.8113ZM44.1521 28.4067L40.914 33.3662H47.4086L44.1521 28.4067Z" fill="url(#paint7_linear_2063_349)"/>
<path d="M56.665 25.6147C57.1311 25.6147 57.5666 25.7923 57.9713 26.1474L68.2193 35.0377V26.6066C68.2193 25.9454 68.6424 25.6147 69.4888 25.6147C70.3351 25.6147 70.7582 25.9454 70.7582 26.6066V37.499C70.7582 38.1725 70.3167 38.5093 69.4336 38.5093C68.992 38.5093 68.5504 38.3195 68.1089 37.9399L57.8977 29.068V37.4807C57.8977 38.1664 57.4684 38.5093 56.6098 38.5093C55.7635 38.5093 55.3404 38.1664 55.3404 37.4807V26.6434C55.3404 25.9576 55.7819 25.6147 56.665 25.6147Z" fill="url(#paint8_linear_2063_349)"/>
<path d="M87.0695 34.7989V29.3251C87.0695 28.223 86.0085 27.672 83.8865 27.672H76.8031C76.6927 27.672 76.6376 27.7149 76.6376 27.8006V36.3235C76.6376 36.4092 76.6927 36.452 76.8031 36.452H83.8865C86.0085 36.452 87.0695 35.901 87.0695 34.7989ZM83.7761 38.4174H75.2025C74.4543 38.4174 74.0802 38.148 74.0802 37.6092V26.5148C74.0802 25.976 74.4297 25.7066 75.1289 25.7066H83.7761C87.6766 25.7066 89.6268 26.8883 89.6268 29.2517V34.8724C89.6268 37.2358 87.6766 38.4174 83.7761 38.4174Z" fill="url(#paint9_linear_2063_349)"/>
<path d="M113.018 38.4174H105.365C101.685 38.4174 99.8452 37.2174 99.8452 34.8173V26.625C99.8452 25.9515 100.268 25.6147 101.115 25.6147C101.973 25.6147 102.403 25.9515 102.403 26.625V34.7438C102.403 35.8826 103.433 36.452 105.493 36.452H113.018C113.791 36.452 114.178 36.7765 114.178 37.4256C114.178 38.0868 113.791 38.4174 113.018 38.4174Z" fill="url(#paint10_linear_2063_349)"/>
<path d="M126.091 38.4174H121.804C118.124 38.4174 116.284 37.2174 116.284 34.8173V26.625C116.284 25.9515 116.714 25.6147 117.572 25.6147C118.419 25.6147 118.842 25.9515 118.842 26.625V34.7438C118.842 35.8826 119.872 36.452 121.933 36.452H125.943C128.004 36.452 129.034 35.8826 129.034 34.7438V26.625C129.034 25.9515 129.464 25.6147 130.322 25.6147C131.169 25.6147 131.592 25.9515 131.592 26.625V34.8173C131.592 37.2174 129.758 38.4174 126.091 38.4174Z" fill="url(#paint11_linear_2063_349)"/>
<path d="M152.783 37.499V29.8395L146.472 37.8664C146.117 38.295 145.657 38.5093 145.092 38.5093C144.565 38.5093 144.111 38.295 143.731 37.8664L137.439 29.8578V37.499C137.439 38.1725 137.009 38.5093 136.151 38.5093C135.304 38.5093 134.881 38.1725 134.881 37.499V26.7352C134.881 25.9882 135.311 25.6147 136.169 25.6147C136.758 25.6147 137.261 25.8719 137.678 26.3862L145.092 35.7908L152.525 26.3862C152.942 25.8719 153.451 25.6147 154.052 25.6147C154.899 25.6147 155.322 25.9882 155.322 26.7352V37.499C155.322 38.1725 154.899 38.5093 154.052 38.5093C153.206 38.5093 152.783 38.1725 152.783 37.499Z" fill="url(#paint12_linear_2063_349)"/>
<path d="M171.605 38.4174H164.08C160.412 38.4174 158.579 37.2358 158.579 34.8724V29.1598C158.579 26.8577 160.382 25.7066 163.988 25.7066H166.472C167.244 25.7066 167.631 26.0311 167.631 26.6801C167.631 27.3414 167.244 27.672 166.472 27.672H164.043C162.093 27.672 161.118 28.1924 161.118 29.2333V31.0885H171.623C172.347 31.0885 172.709 31.3946 172.709 32.0069C172.709 32.6314 172.347 32.9437 171.623 32.9437H161.118V34.7805C161.118 35.8949 162.154 36.452 164.227 36.452H171.605C172.378 36.452 172.764 36.7765 172.764 37.4256C172.764 38.0868 172.378 38.4174 171.605 38.4174Z" fill="url(#paint13_linear_2063_349)"/>
<path d="M177.027 25.6147C177.494 25.6147 177.929 25.7923 178.334 26.1474L188.582 35.0377V26.6066C188.582 25.9454 189.005 25.6147 189.851 25.6147C190.698 25.6147 191.121 25.9454 191.121 26.6066V37.499C191.121 38.1725 190.679 38.5093 189.796 38.5093C189.354 38.5093 188.913 38.3195 188.471 37.9399L178.26 29.068V37.4807C178.26 38.1664 177.831 38.5093 176.972 38.5093C176.126 38.5093 175.703 38.1664 175.703 37.4807V26.6434C175.703 25.9576 176.144 25.6147 177.027 25.6147Z" fill="url(#paint14_linear_2063_349)"/>
<path d="M194.443 37.499V26.625C194.443 25.9515 194.878 25.6147 195.749 25.6147C196.583 25.6147 197 25.9515 197 26.625V37.499C197 38.1725 196.571 38.5093 195.712 38.5093C194.866 38.5093 194.443 38.1725 194.443 37.499Z" fill="url(#paint15_linear_2063_349)"/>
<defs>
<linearGradient id="paint0_linear_2063_349" x1="98.4806" y1="17.0044" x2="98.4806" y2="0.541992" gradientUnits="userSpaceOnUse">
<stop stop-color="#3660A6"/>
<stop offset="1" stop-color="#3991C8"/>
</linearGradient>
<linearGradient id="paint1_linear_2063_349" x1="98.5208" y1="17.0382" x2="98.5208" y2="0.541622" gradientUnits="userSpaceOnUse">
<stop stop-color="#3660A6"/>
<stop offset="1" stop-color="#3991C8"/>
</linearGradient>
<linearGradient id="paint2_linear_2063_349" x1="98.5052" y1="17.0382" x2="98.5052" y2="0.541622" gradientUnits="userSpaceOnUse">
<stop stop-color="#3660A6"/>
<stop offset="1" stop-color="#3991C8"/>
</linearGradient>
<linearGradient id="paint3_linear_2063_349" x1="98.569" y1="17.0551" x2="98.569" y2="0.568385" gradientUnits="userSpaceOnUse">
<stop stop-color="#3660A6"/>
<stop offset="1" stop-color="#3991C8"/>
</linearGradient>
<linearGradient id="paint4_linear_2063_349" x1="65.5297" y1="17.031" x2="65.5297" y2="11.346" gradientUnits="userSpaceOnUse">
<stop stop-color="#3660A6"/>
<stop offset="1" stop-color="#3991C8"/>
</linearGradient>
<linearGradient id="paint5_linear_2063_349" x1="98.7252" y1="41.8499" x2="98.7252" y2="23.4987" gradientUnits="userSpaceOnUse">
<stop stop-color="#3660A6"/>
<stop offset="1" stop-color="#3991C8"/>
</linearGradient>
<linearGradient id="paint6_linear_2063_349" x1="98.7252" y1="41.8499" x2="98.7252" y2="23.4987" gradientUnits="userSpaceOnUse">
<stop stop-color="#3660A6"/>
<stop offset="1" stop-color="#3991C8"/>
</linearGradient>
<linearGradient id="paint7_linear_2063_349" x1="98.7252" y1="41.8499" x2="98.7252" y2="23.4987" gradientUnits="userSpaceOnUse">
<stop stop-color="#3660A6"/>
<stop offset="1" stop-color="#3991C8"/>
</linearGradient>
<linearGradient id="paint8_linear_2063_349" x1="98.7252" y1="41.8499" x2="98.7252" y2="23.4987" gradientUnits="userSpaceOnUse">
<stop stop-color="#3660A6"/>
<stop offset="1" stop-color="#3991C8"/>
</linearGradient>
<linearGradient id="paint9_linear_2063_349" x1="98.7252" y1="41.8499" x2="98.7252" y2="23.4987" gradientUnits="userSpaceOnUse">
<stop stop-color="#3660A6"/>
<stop offset="1" stop-color="#3991C8"/>
</linearGradient>
<linearGradient id="paint10_linear_2063_349" x1="98.7252" y1="41.8499" x2="98.7252" y2="23.4987" gradientUnits="userSpaceOnUse">
<stop stop-color="#3660A6"/>
<stop offset="1" stop-color="#3991C8"/>
</linearGradient>
<linearGradient id="paint11_linear_2063_349" x1="98.7252" y1="41.8499" x2="98.7252" y2="23.4987" gradientUnits="userSpaceOnUse">
<stop stop-color="#3660A6"/>
<stop offset="1" stop-color="#3991C8"/>
</linearGradient>
<linearGradient id="paint12_linear_2063_349" x1="98.7252" y1="41.8499" x2="98.7252" y2="23.4987" gradientUnits="userSpaceOnUse">
<stop stop-color="#3660A6"/>
<stop offset="1" stop-color="#3991C8"/>
</linearGradient>
<linearGradient id="paint13_linear_2063_349" x1="98.7252" y1="41.8499" x2="98.7252" y2="23.4987" gradientUnits="userSpaceOnUse">
<stop stop-color="#3660A6"/>
<stop offset="1" stop-color="#3991C8"/>
</linearGradient>
<linearGradient id="paint14_linear_2063_349" x1="98.7252" y1="41.8499" x2="98.7252" y2="23.4987" gradientUnits="userSpaceOnUse">
<stop stop-color="#3660A6"/>
<stop offset="1" stop-color="#3991C8"/>
</linearGradient>
<linearGradient id="paint15_linear_2063_349" x1="98.7252" y1="41.8499" x2="98.7252" y2="23.4987" gradientUnits="userSpaceOnUse">
<stop stop-color="#3660A6"/>
<stop offset="1" stop-color="#3991C8"/>
</linearGradient>
</defs>
</svg>
